<?xml version="1.0" encoding="UTF-8"?>
<svg width="1200" height="800" viewBox="0 0 1200 800" fill="none" xmlns="http://www.w3.org/2000/svg">
  <defs>
    <linearGradient id="g1" x1="0" y1="0" x2="1" y2="1">
      <stop offset="0%" stop-color="#60A5FA"/>
      <stop offset="100%" stop-color="#7C3AED"/>
    </linearGradient>
    <linearGradient id="g2" x1="0" y1="0" x2="1" y2="0">
      <stop offset="0%" stop-color="#C7D2FE"/>
      <stop offset="100%" stop-color="#BFDBFE"/>
    </linearGradient>
    <filter id="blur" x="-20%" y="-20%" width="140%" height="140%">
      <feGaussianBlur stdDeviation="40"/>
    </filter>
  </defs>
  <rect x="0" y="0" width="1200" height="800" fill="url(#g2)"/>
  <circle cx="200" cy="140" r="140" fill="#ffffff" opacity="0.35" filter="url(#blur)"/>
  <circle cx="1020" cy="660" r="160" fill="#ffffff" opacity="0.35" filter="url(#blur)"/>

  <g transform="translate(180,180)">
    <rect x="0" y="0" rx="24" ry="24" width="840" height="460" fill="#ffffff" stroke="#E5E7EB"/>
    <rect x="24" y="28" rx="10" ry="10" width="260" height="36" fill="#EFF6FF"/>
    <rect x="304" y="28" rx="10" ry="10" width="200" height="36" fill="#EEF2FF"/>
    <rect x="520" y="28" rx="10" ry="10" width="140" height="36" fill="#F5F3FF"/>

    <!-- chart bars -->
    <g transform="translate(40,100)">
      <rect x="0" y="140" width="48" height="120" rx="8" fill="#DBEAFE"/>
      <rect x="72" y="100" width="48" height="160" rx="8" fill="#C7D2FE"/>
      <rect x="144" y="60" width="48" height="200" rx="8" fill="#A5B4FC"/>
      <rect x="216" y="30" width="48" height="230" rx="8" fill="#93C5FD"/>
      <rect x="288" y="10" width="48" height="250" rx="8" fill="#7DD3FC"/>
      <rect x="360" y="80" width="48" height="180" rx="8" fill="#A78BFA"/>
    </g>

    <!-- line chart -->
    <path d="M520,320 C560,280 600,260 640,300 C680,340 720,310 760,290 C800,270 820,300 844,306" stroke="url(#g1)" stroke-width="8" fill="none"/>
    <circle cx="520" cy="320" r="6" fill="#3B82F6"/>
    <circle cx="640" cy="300" r="6" fill="#3B82F6"/>
    <circle cx="760" cy="290" r="6" fill="#3B82F6"/>
    <circle cx="844" cy="306" r="6" fill="#3B82F6"/>
  </g>

  <!-- decorative dots -->
  <g fill="#E0E7FF">
    <circle cx="104" cy="680" r="4"/>
    <circle cx="124" cy="700" r="3"/>
    <circle cx="90" cy="720" r="3"/>
  </g>
</svg>
